<svg xmlns="http://www.w3.org/2000/svg" width="4" height="4" viewBox="0 0 4 4"><rect x="0" y="0" width="1" height="1" fill="#000" fill-opacity="0.059"/><rect x="1" y="0" width="1" height="1" fill="#000" fill-opacity="0.529"/><rect x="2" y="0" width="1" height="1" fill="#000" fill-opacity="0.176"/><rect x="3" y="0" width="1" height="1" fill="#000" fill-opacity="0.647"/><rect x="0" y="1" width="1" height="1" fill="#000" fill-opacity="0.765"/><rect x="1" y="1" width="1" height="1" fill="#000" fill-opacity="0.294"/><rect x="2" y="1" width="1" height="1" fill="#000" fill-opacity="0.882"/><rect x="3" y="1" width="1" height="1" fill="#000" fill-opacity="0.412"/><rect x="0" y="2" width="1" height="1" fill="#000" fill-opacity="0.235"/><rect x="1" y="2" width="1" height="1" fill="#000" fill-opacity="0.706"/><rect x="2" y="2" width="1" height="1" fill="#000" fill-opacity="0.118"/><rect x="3" y="2" width="1" height="1" fill="#000" fill-opacity="0.588"/><rect x="0" y="3" width="1" height="1" fill="#000" fill-opacity="0.941"/><rect x="1" y="3" width="1" height="1" fill="#000" fill-opacity="0.471"/><rect x="2" y="3" width="1" height="1" fill="#000" fill-opacity="0.824"/><rect x="3" y="3" width="1" height="1" fill="#000" fill-opacity="0.353"/></svg>